# xmcd
#
# Track frame offsets: 
#        150
#        11674
#        23432
#        36137
#        47577
#        58011
#        70240
#        82456
#        97308
#        112231
#        122986
#        132000
#        141338
#        152650
#        163875
#        177152
#        190452
#        201120
#        210121
#        218962
#        229279
#        239838
#        252660
#        264470
#        274649
#        284670
#        295484
#        307698
#
# Disc length: 4270 seconds
#
# Revision: 6
# Processed by: cddbd v1.5.2PL0 Copyright (c) Steve Scherf et al.
# Submitted via: ExactAudioCopyFreeDBPlugin 1.0
#
DISCID=ba10ac1c
DTITLE=James Carr - The Complete Goldwax Records Singles
DYEAR=2001
DGENRE=Soul
TTITLE0=The Dark End of the Street
TTITLE1=These Ain't Raindrops
TTITLE2=A Man Needs a Woman
TTITLE3=Life Turned Her That Way
TTITLE4=Freedom Train
TTITLE5=Pouring Water on a Drowning Man
TTITLE6=Everybody Needs Somebody
TTITLE7=That's the Way Love Turned Out for Me
TTITLE8=To Love Somebody
TTITLE9=You've Got My Mind Messed Up
TTITLE10=I'm a Fool for You
TTITLE11=A Losing Game
TTITLE12=Stronger Than Love
TTITLE13=Lovable Girl
TTITLE14=Forgetting You
TTITLE15=Love Attack
TTITLE16=She's Better Than You
TTITLE17=Coming Back to Me Baby
TTITLE18=That's What I Want to Know
TTITLE19=Talk, Talk
TTITLE20=I Can't Make It
TTITLE21=Only Fools Run Away
TTITLE22=You Don't Want Me
TTITLE23=Lover's Competition
TTITLE24=Row, Row Your Boat
TTITLE25=Gonna Send You Back to Georgia
TTITLE26=Let it Happen
TTITLE27=A Message to Young Lovers
EXTD=YEAR: 2001 ID3G: 42
EXTT0=
EXTT1=
EXTT2=
EXTT3=
EXTT4=
EXTT5=
EXTT6=
EXTT7=
EXTT8=
EXTT9=
EXTT10=
EXTT11=
EXTT12=
EXTT13=
EXTT14=
EXTT15=
EXTT16=
EXTT17=
EXTT18=
EXTT19=
EXTT20=
EXTT21=
EXTT22=
EXTT23=
EXTT24=
EXTT25=
EXTT26=
EXTT27=
PLAYORDER=
